<svg id="图层_1" data-name="图层 1" xmlns="http://www.w3.org/2000/svg" viewBox="0 0 200 200"><defs><style>.cls-1{fill:#fff;}</style></defs><circle cx="100" cy="100" r="62.5"/><path class="cls-1" d="M101.7,63.3c3.1,2.5,7.4,11.2,11.4,21.4,10.7.6,19.8,1.8,23.1,3.4.6.3.7,2.4.4,3.2-2,4.2-7.8,10.9-16,17.8,2.3,10,3.3,17.7,3.4,22.5,0,1-2.1,1.6-3.1,1.1-5.3-2.2-12-4.6-20.8-9.5-8.8,4.9-15.5,7.3-20.8,9.5-1,.5-3.1-.2-3.1-1.1.1-4.9,1.1-12.6,3.4-22.5-8.2-6.9-14.1-13.6-16-17.8-.4-.8-.2-2.9.4-3.2,3.3-1.6,12.4-2.8,23.1-3.4C91,74.5,95.4,65.8,98.5,63.3A3.6,3.6,0,0,1,101.7,63.3Z"/></svg>